<svg xmlns="http://www.w3.org/2000/svg" viewBox="0 0 1000 180" preserveAspectRatio="none">
  <defs>
    <linearGradient id="wood" x1="0" y1="0" x2="0" y2="1">
      <stop offset="0" stop-color="#d59958"/>
      <stop offset="0.18" stop-color="#93602c"/>
      <stop offset="0.54" stop-color="#9f6a36"/>
      <stop offset="1" stop-color="#3a1708"/>
    </linearGradient>
    <linearGradient id="shine" x1="0" y1="0" x2="1" y2="1">
      <stop offset="0" stop-color="#ffffff" stop-opacity="0.65"/>
      <stop offset="0.45" stop-color="#ffffff" stop-opacity="0.08"/>
      <stop offset="1" stop-color="#000000" stop-opacity="0.32"/>
    </linearGradient>
    <pattern id="grain" width="46" height="18" patternUnits="userSpaceOnUse">
      <path d="M0 11C12 0 30 23 46 8" fill="none" stroke="#5f2b12" stroke-opacity="0.32" stroke-width="2"/>
    </pattern>
    <filter id="shadow" x="-20%" y="-30%" width="140%" height="160%">
      <feDropShadow dx="0" dy="22" stdDeviation="12" flood-color="#000" flood-opacity="0.55"/>
    </filter>
  </defs>
  <g filter="url(#shadow)">
    <path d="M30 20H970C986 20 996 36 996 52V145H4V52C4 36 14 20 30 20Z" fill="url(#wood)"/>
    <path d="M30 20H970C986 20 996 36 996 52V145H4V52C4 36 14 20 30 20Z" fill="url(#grain)" opacity="0.9"/>
    <path d="M34 25H966C980 25 989 38 989 52V78H11V52C11 38 20 25 34 25Z" fill="url(#shine)"/>
    <path d="M18 92H982" stroke="#2b1006" stroke-width="8" stroke-linecap="round" opacity="0.52"/>
    <path d="M0 142H1000V180H0Z" fill="#2a0f05"/>
    <path d="M0 142H1000" stroke="#ddb16b" stroke-width="4" opacity="0.72"/>
    <path d="M12 30H988" stroke="#ffa52d" stroke-width="5" opacity="0.9"/>
    <path d="M12 30H988" stroke="#ffe2a3" stroke-width="2" opacity="0.9"/>
    <text x="500" y="122" text-anchor="middle" font-size="40" font-family="Arial Black, Arial" fill="#ffffff" opacity="0.18">LOUNGE 101</text>
  </g>
</svg>
