<svg xmlns="http://www.w3.org/2000/svg" viewBox="0 0 1400 640" preserveAspectRatio="none">
  <defs>
    <linearGradient id="wall" x1="0" y1="0" x2="0" y2="1">
      <stop offset="0" stop-color="#f6ead0"/>
      <stop offset="0.22" stop-color="#d9ba78"/>
      <stop offset="0.23" stop-color="#214a97"/>
      <stop offset="1" stop-color="#12326d"/>
    </linearGradient>
    <linearGradient id="felt" x1="0" y1="0" x2="0" y2="1">
      <stop offset="0" stop-color="#477bd1"/>
      <stop offset="0.5" stop-color="#2d61bd"/>
      <stop offset="1" stop-color="#174187"/>
    </linearGradient>
    <linearGradient id="gold" x1="0" y1="0" x2="1" y2="1">
      <stop offset="0" stop-color="#fff1b8"/>
      <stop offset="0.42" stop-color="#c48a30"/>
      <stop offset="0.72" stop-color="#f9df8e"/>
      <stop offset="1" stop-color="#8b5d1c"/>
    </linearGradient>
    <filter id="shadow" x="-20%" y="-20%" width="140%" height="140%">
      <feDropShadow dx="0" dy="22" stdDeviation="18" flood-color="#000" flood-opacity="0.38"/>
    </filter>
    <pattern id="feltLines" width="24" height="24" patternUnits="userSpaceOnUse" patternTransform="rotate(35)">
      <rect width="24" height="24" fill="none"/>
      <path d="M0 0H24" stroke="#ffffff" stroke-opacity="0.07" stroke-width="2"/>
    </pattern>
    <pattern id="wallPanel" width="86" height="86" patternUnits="userSpaceOnUse">
      <path d="M0 0H86V86H0Z" fill="none"/>
      <path d="M8 0V86M78 0V86" stroke="#8b5d1c" stroke-opacity="0.12" stroke-width="6"/>
    </pattern>
  </defs>
  <rect width="1400" height="640" fill="url(#wall)"/>
  <rect width="1400" height="145" fill="url(#wallPanel)" opacity="0.8"/>
  <rect y="508" width="1400" height="132" fill="#5b3218"/>
  <path d="M0 548H1400V640H0Z" fill="#7b5430" opacity="0.5"/>
  <path d="M0 548H1400" stroke="#e8c784" stroke-width="3" opacity="0.8"/>
  <path d="M120 38H260V455H120Z" fill="#eaf8ff" opacity="0.55"/>
  <path d="M520 34H680V455H520Z" fill="#eaf8ff" opacity="0.48"/>
  <path d="M1120 38H1280V455H1120Z" fill="#eaf8ff" opacity="0.52"/>
  <path d="M120 455C120 335 260 335 260 455" fill="none" stroke="#eee6a7" stroke-width="10" opacity="0.75"/>
  <path d="M520 455C520 330 680 330 680 455" fill="none" stroke="#eee6a7" stroke-width="10" opacity="0.7"/>
  <path d="M1120 455C1120 335 1280 335 1280 455" fill="none" stroke="#eee6a7" stroke-width="10" opacity="0.75"/>

  <g filter="url(#shadow)">
    <rect x="28" y="92" width="1344" height="462" rx="36" fill="url(#gold)"/>
    <rect x="48" y="112" width="1304" height="424" rx="30" fill="#f6edd5"/>
    <rect x="72" y="134" width="1256" height="374" rx="28" fill="url(#felt)"/>
    <rect x="72" y="134" width="1256" height="374" rx="28" fill="url(#feltLines)"/>
    <rect x="72" y="134" width="1256" height="374" rx="28" fill="none" stroke="#fff3c1" stroke-width="10"/>
    <rect x="90" y="154" width="1220" height="336" rx="20" fill="none" stroke="#09275f" stroke-opacity="0.4" stroke-width="6"/>
  </g>
  <text x="700" y="325" text-anchor="middle" font-size="56" font-family="Arial Black, Arial" fill="#ffffff" opacity="0.16" letter-spacing="18">LOUNGE</text>
  <text x="700" y="378" text-anchor="middle" font-size="44" font-family="Arial Black, Arial" fill="#ffffff" opacity="0.15" letter-spacing="8">101 CLUB</text>
  <path d="M42 310C22 248 40 196 92 172V464C48 438 34 380 42 310Z" fill="#08265c" opacity="0.7"/>
  <path d="M1358 310C1378 248 1360 196 1308 172V464C1352 438 1366 380 1358 310Z" fill="#08265c" opacity="0.7"/>
</svg>
